<svg xmlns="http://www.w3.org/2000/svg" version="1.1" xmlns:xlink="http://www.w3.org/1999/xlink" xmlns:svgjs="http://svgjs.dev/svgjs" width="1000" height="1000" viewBox="0 0 1000 1000"><rect width="1000" height="1000" fill="#000000"></rect><g transform="matrix(0.7,0,0,0.7,149.57577564725295,282.16010485829963)"><svg viewBox="0 0 396 247" data-background-color="#ffffff" preserveAspectRatio="xMidYMid meet" height="623" width="1000" xmlns="http://www.w3.org/2000/svg" xmlns:xlink="http://www.w3.org/1999/xlink"><g id="tight-bounds" transform="matrix(1,0,0,1,0.23999009617512002,-0.09999999999999432)"><svg viewBox="0 0 395.52 247.2" height="247.2" width="395.52"><g><svg></svg></g><g><svg viewBox="0 0 395.52 247.2" height="247.2" width="395.52"><g><g><path xmlns="http://www.w3.org/2000/svg" d="M134.382 247.219h-34.07l6.101-64.933 33.868 0zM123.542-0.019h34.07l-6.304 64.933-33.867 0zM260.983-0.019h34.225l-6.142 64.933-34.387 0zM271.823 247.219h-34.07l5.899-64.933 34.313 0z" fill="#0063db" fill-rule="nonzero" stroke="none" stroke-width="1" stroke-linecap="butt" stroke-linejoin="miter" stroke-miterlimit="10" stroke-dasharray="" stroke-dashoffset="0" font-family="none" font-weight="none" font-size="none" text-anchor="none" style="mix-blend-mode: normal" data-fill-palette-color="tertiary"></path></g></g><g transform="matrix(1,0,0,1,0,78.172420606916)"><svg viewBox="0 0 395.52 90.85515878616796" height="90.85515878616796" width="395.52"><g><svg viewBox="0 0 395.52 90.85515878616796" height="90.85515878616796" width="395.52"><g><svg viewBox="0 0 395.52 90.85515878616796" height="90.85515878616796" width="395.52"><g><svg viewBox="0 0 395.52 90.85515878616796" height="90.85515878616796" width="395.52"><g id="textblocktransform"><svg viewBox="0 0 395.52 90.85515878616796" height="90.85515878616796" width="395.52" id="textblock"><g><svg viewBox="0 0 395.52 90.85515878616796" height="90.85515878616796" width="395.52"><g transform="matrix(1,0,0,1,0,0)"><svg width="395.52" viewBox="4.380000114440918 -31.93000030517578 141.67999267578125 32.560001373291016" height="90.85515878616796" data-palette-color="#0074d9"><path d="M8.78 0L4.38 0 7.38-31.93 11.78-31.93 10.45-18.23 23.8-18.23 25.13-31.93 29.55-31.93 26.53 0 22.13 0 23.4-13.98 10.05-13.98 8.78 0ZM42.87 0.45L42.87 0.45Q40.5 0.45 38.73-0.51 36.97-1.48 36.1-3.53 35.22-5.58 35.52-8.8L35.52-8.8 37-24.15 41.4-24.15 39.97-9.25Q39.72-6.55 40.77-5.19 41.82-3.83 44-3.83L44-3.83Q45.8-3.83 47.28-4.89 48.77-5.95 49.76-7.9 50.75-9.85 51-12.53L51-12.53 52.1-24.15 56.5-24.15 54.25 0 49.82 0 50.25-4.55Q48.97-2.1 47.07-0.83 45.17 0.45 42.87 0.45ZM67.37 0L62.97 0 65.25-24.1 69.05-24.1 69.09-19.68Q70.42-22.18 72.34-23.45 74.27-24.73 76.65-24.73L76.65-24.73Q79.27-24.73 80.97-23.44 82.67-22.15 83.4-19.76 84.12-17.38 83.8-14.13L83.8-14.13 82.5 0 78.09 0 79.4-14.13Q79.75-17.23 78.53-18.79 77.32-20.35 75.22-20.35L75.22-20.35Q72.47-20.35 70.65-17.95 68.82-15.55 68.4-11.08L68.4-11.08 67.37 0ZM97.44 0.63L97.44 0.63Q95.62 0.63 94.19-0.14 92.77-0.9 92.07-2.48 91.37-4.05 91.57-6.48L91.57-6.48 92.97-21.75 93.99-20.88 89.59-20.88 89.97-24.1 94.32-24.1 93.07-22.98 93.82-30.63 98.22-30.63 97.47-22.98 96.47-24.1 103.97-24.1 103.62-20.88 96.12-20.88 97.34-21.75 95.92-6.58Q95.77-4.9 96.43-4.08 97.09-3.25 98.52-3.25L98.52-3.25Q99.27-3.25 100.13-3.46 100.99-3.68 102.07-4.1L102.07-4.1 102.37-0.65Q101.12-0.08 99.93 0.28 98.74 0.63 97.44 0.63ZM115.64 0.63L115.64 0.63Q112.82 0.63 110.69-0.93 108.57-2.48 107.5-5.31 106.44-8.15 106.82-12.03L106.82-12.03Q107.19-15.98 108.78-18.82 110.37-21.68 112.77-23.2 115.17-24.73 117.99-24.73L117.99-24.73Q120.22-24.73 121.8-23.85 123.39-22.98 124.37-21.46 125.34-19.95 125.75-18.01 126.17-16.07 125.99-13.93L125.99-13.93Q125.94-13.23 125.83-12.46 125.72-11.7 125.54-10.9L125.54-10.9 109.94-10.9 111.17-11.78Q110.87-9.4 111.25-7.48 111.64-5.55 112.82-4.44 113.99-3.33 116.04-3.33L116.04-3.33Q117.79-3.33 119.09-4.29 120.39-5.25 120.84-7.13L120.84-7.13 125.34-7.13Q124.77-4.75 123.38-3.01 121.99-1.28 120-0.33 118.02 0.63 115.64 0.63ZM111.29-13.28L111.29-13.28 110.32-13.98 123.02-13.98 121.79-13.38Q122.07-15.28 121.83-16.98 121.59-18.68 120.63-19.75 119.67-20.83 117.69-20.83L117.69-20.83Q115.87-20.83 114.52-19.81 113.17-18.8 112.35-17.09 111.54-15.38 111.29-13.28ZM135.76 0L131.36 0 133.64-24.15 138.04-24.15 137.59-19.48Q138.76-22.08 140.38-23.31 141.99-24.55 143.94-24.55L143.94-24.55Q144.44-24.55 144.99-24.46 145.54-24.38 146.06-24.15L146.06-24.15 145.49-19.3Q144.84-19.48 144.16-19.59 143.49-19.7 142.84-19.7L142.84-19.7Q141.04-19.7 139.76-18.63 138.49-17.55 137.75-15.55 137.01-13.55 136.76-10.73L136.76-10.73 135.76 0Z" opacity="1" transform="matrix(1,0,0,1,0,0)" fill="#0074d9" class="undefined-text-0" data-fill-palette-color="primary" id="text-0"></path></svg></g></svg></g></svg></g></svg></g></svg></g></svg></g></svg></g></svg></g><defs></defs></svg><rect width="395.52" height="247.2" fill="none" stroke="none" visibility="hidden"></rect></g></svg></g></svg>